<svg xmlns="http://www.w3.org/2000/svg" viewBox="0 0 640 360" role="img" aria-label="Bit-Sliced Indexing">
  <defs>
    <linearGradient id="bg" x1="0%" y1="0%" x2="100%" y2="100%">
      <stop offset="0%" stop-color="#0d2137"/>
      <stop offset="100%" stop-color="#1a4a7a"/>
    </linearGradient>
  </defs>
  <rect width="640" height="360" fill="url(#bg)"/>
  <g opacity="0.15">
    <rect x="40" y="60" width="560" height="18" fill="#fff"/>
    <rect x="40" y="90" width="560" height="18" fill="#fff"/>
    <rect x="40" y="120" width="560" height="18" fill="#fff"/>
    <rect x="40" y="150" width="560" height="18" fill="#fff"/>
    <rect x="40" y="180" width="560" height="18" fill="#fff"/>
    <rect x="40" y="210" width="560" height="18" fill="#fff"/>
    <rect x="40" y="240" width="560" height="18" fill="#fff"/>
    <rect x="40" y="270" width="560" height="18" fill="#fff"/>
  </g>
  <g transform="translate(80, 95)">
    <rect x="0" y="0" width="480" height="28" fill="#2ecc71" opacity="0.9"/>
    <rect x="0" y="36" width="480" height="28" fill="#3498db" opacity="0.85"/>
    <rect x="0" y="72" width="480" height="28" fill="#e74c3c" opacity="0.8"/>
    <rect x="0" y="108" width="480" height="28" fill="#f39c12" opacity="0.75"/>
    <rect x="0" y="144" width="480" height="28" fill="#9b59b6" opacity="0.7"/>
  </g>
  <text x="40" y="48" fill="#fff" font-family="Arial, Helvetica, sans-serif" font-size="28" font-weight="700">Bit-Sliced Indexing</text>
  <text x="40" y="330" fill="#a8d4ff" font-family="Arial, Helvetica, sans-serif" font-size="16">bsiCPP · bsiPytorch</text>
</svg>
